<mxfile host="app.diagrams.net" agent="Mozilla/5.0 (Windows NT 10.0; Win64; x64) AppleWebKit/537.36 (KHTML, like Gecko) Chrome/128.0.0.0 Safari/537.36 Edg/128.0.0.0" version="24.9.0">
  <diagram name="Page-1" id="NztFEv24zO5EWflmbpse">
    <mxGraphModel dx="1106" dy="575" grid="1" gridSize="10" guides="1" tooltips="1" connect="1" arrows="1" fold="1" page="1" pageScale="1" pageWidth="850" pageHeight="1100" math="0" shadow="0">
      <root>
        <mxCell id="0" />
        <mxCell id="1" parent="0" />
        <mxCell id="PePLRGYw5KcEXR3Q01SN-9" value="" style="edgeStyle=orthogonalEdgeStyle;rounded=0;orthogonalLoop=1;jettySize=auto;html=1;" edge="1" parent="1" source="PePLRGYw5KcEXR3Q01SN-1" target="PePLRGYw5KcEXR3Q01SN-2">
          <mxGeometry relative="1" as="geometry" />
        </mxCell>
        <mxCell id="PePLRGYw5KcEXR3Q01SN-1" value="Application code or OS change" style="rounded=0;whiteSpace=wrap;html=1;" vertex="1" parent="1">
          <mxGeometry x="70" y="120" width="120" height="60" as="geometry" />
        </mxCell>
        <mxCell id="PePLRGYw5KcEXR3Q01SN-10" value="" style="edgeStyle=orthogonalEdgeStyle;rounded=0;orthogonalLoop=1;jettySize=auto;html=1;" edge="1" parent="1" source="PePLRGYw5KcEXR3Q01SN-2" target="PePLRGYw5KcEXR3Q01SN-3">
          <mxGeometry relative="1" as="geometry" />
        </mxCell>
        <mxCell id="PePLRGYw5KcEXR3Q01SN-2" value="Build application container or OS image" style="rounded=0;whiteSpace=wrap;html=1;" vertex="1" parent="1">
          <mxGeometry x="250" y="120" width="120" height="60" as="geometry" />
        </mxCell>
        <mxCell id="PePLRGYw5KcEXR3Q01SN-11" value="" style="edgeStyle=orthogonalEdgeStyle;rounded=0;orthogonalLoop=1;jettySize=auto;html=1;" edge="1" parent="1" source="PePLRGYw5KcEXR3Q01SN-3" target="PePLRGYw5KcEXR3Q01SN-6">
          <mxGeometry relative="1" as="geometry" />
        </mxCell>
        <mxCell id="PePLRGYw5KcEXR3Q01SN-3" value="Container or image scanning&lt;br&gt;(Ex: Docker Scout)" style="rounded=0;whiteSpace=wrap;html=1;fillColor=#dae8fc;strokeColor=#6c8ebf;" vertex="1" parent="1">
          <mxGeometry x="430" y="120" width="120" height="60" as="geometry" />
        </mxCell>
        <mxCell id="PePLRGYw5KcEXR3Q01SN-14" style="edgeStyle=orthogonalEdgeStyle;rounded=0;orthogonalLoop=1;jettySize=auto;html=1;exitX=1;exitY=0.5;exitDx=0;exitDy=0;entryX=0;entryY=0.5;entryDx=0;entryDy=0;" edge="1" parent="1" source="PePLRGYw5KcEXR3Q01SN-4" target="PePLRGYw5KcEXR3Q01SN-5">
          <mxGeometry relative="1" as="geometry" />
        </mxCell>
        <mxCell id="PePLRGYw5KcEXR3Q01SN-4" value="Infrastructure code change" style="rounded=0;whiteSpace=wrap;html=1;" vertex="1" parent="1">
          <mxGeometry x="70" y="260" width="120" height="60" as="geometry" />
        </mxCell>
        <mxCell id="PePLRGYw5KcEXR3Q01SN-15" style="edgeStyle=orthogonalEdgeStyle;rounded=0;orthogonalLoop=1;jettySize=auto;html=1;exitX=1;exitY=0.5;exitDx=0;exitDy=0;entryX=0;entryY=0.5;entryDx=0;entryDy=0;" edge="1" parent="1" source="PePLRGYw5KcEXR3Q01SN-5" target="PePLRGYw5KcEXR3Q01SN-6">
          <mxGeometry relative="1" as="geometry" />
        </mxCell>
        <mxCell id="PePLRGYw5KcEXR3Q01SN-5" value="Infrastructure as code scanning&lt;br&gt;(Ex: Terrascan)" style="rounded=0;whiteSpace=wrap;html=1;fillColor=#dae8fc;strokeColor=#6c8ebf;" vertex="1" parent="1">
          <mxGeometry x="430" y="260" width="120" height="60" as="geometry" />
        </mxCell>
        <mxCell id="PePLRGYw5KcEXR3Q01SN-12" value="" style="edgeStyle=orthogonalEdgeStyle;rounded=0;orthogonalLoop=1;jettySize=auto;html=1;" edge="1" parent="1" source="PePLRGYw5KcEXR3Q01SN-6" target="PePLRGYw5KcEXR3Q01SN-7">
          <mxGeometry relative="1" as="geometry" />
        </mxCell>
        <mxCell id="PePLRGYw5KcEXR3Q01SN-6" value="Update cloud and infrastructure configuration" style="rounded=0;whiteSpace=wrap;html=1;" vertex="1" parent="1">
          <mxGeometry x="610" y="120" width="120" height="60" as="geometry" />
        </mxCell>
        <mxCell id="PePLRGYw5KcEXR3Q01SN-13" value="" style="edgeStyle=orthogonalEdgeStyle;rounded=0;orthogonalLoop=1;jettySize=auto;html=1;" edge="1" parent="1" source="PePLRGYw5KcEXR3Q01SN-7" target="PePLRGYw5KcEXR3Q01SN-8">
          <mxGeometry relative="1" as="geometry" />
        </mxCell>
        <mxCell id="PePLRGYw5KcEXR3Q01SN-7" value="Deploy cloud configuration or application to environment" style="rounded=0;whiteSpace=wrap;html=1;" vertex="1" parent="1">
          <mxGeometry x="790" y="120" width="120" height="60" as="geometry" />
        </mxCell>
        <mxCell id="PePLRGYw5KcEXR3Q01SN-8" value="Scanning after deployment&lt;br&gt;(AWS config, Security hub)" style="rounded=0;whiteSpace=wrap;html=1;fillColor=#dae8fc;strokeColor=#6c8ebf;" vertex="1" parent="1">
          <mxGeometry x="970" y="120" width="120" height="60" as="geometry" />
        </mxCell>
      </root>
    </mxGraphModel>
  </diagram>
</mxfile>
